<?xml version="1.0" encoding="UTF-8" standalone="no"?>
<svg height="16px" viewBox="0 0 16 16" width="16px" xmlns="http://www.w3.org/2000/svg" xmlns:inkscape="http://www.inkscape.org/namespaces/inkscape" xmlns:sodipodi="http://sodipodi.sourceforge.net/DTD/sodipodi-0.dtd" xmlns:svg="http://www.w3.org/2000/svg" sodipodi:docname="anime-symbolic.svg" inkscape:version="1.3.2 (091e20ef0f, 2023-11-25)">
    <sodipodi:namedview pagecolor="#505050" bordercolor="#eeeeee" borderopacity="1" inkscape:showpageshadow="0" inkscape:pageopacity="0" inkscape:pagecheckerboard="0" inkscape:deskcolor="#505050" inkscape:zoom="35.57631" inkscape:cx="5.69199" inkscape:cy="9.9926046" inkscape:window-width="1920" inkscape:window-height="1011" inkscape:window-x="0" inkscape:window-y="0" inkscape:window-maximized="1" inkscape:current-layer="svg5"/>
    <path d="m 2.5527344 0.00585938 c -1.3824906 0 -2.5292969 1.14680642 -2.5292969 2.52929692 v 10.9414067 c 0 1.38249 1.1468078 2.529296 2.5292969 2.529296 h 10.9414066 c 1.382489 0 2.529296 -1.146806 2.529296 -2.529296 v -10.9414067 c 0 -1.3824899 -1.146806 -2.52929693 -2.529296 -2.52929692 z m 0 2.18945312 h 10.9414066 c 0.207839 0 0.339843 0.1320066 0.339843 0.3398438 v 10.9414067 c 0 0.207838 -0.132002 0.341796 -0.339843 0.341796 h -10.9414066 c -0.207839 0 -0.3417969 -0.133959 -0.3417969 -0.341796 v -10.9414067 c 0 -0.2078367 0.1339594 -0.3398438 0.3417969 -0.3398438 z" stroke-linecap="round" stroke-linejoin="round"/>
    <path d="m 6.5129257 5.1643642 c -0.081863 0.00438 -0.1624652 0.019944 -0.2402344 0.044922 c -0.4721906 0.057626 -0.8405718 0.4545457 -0.8496093 0.9433593 l -0.068359 3.6933594 c -0.0071 0.3841671 0.2099971 0.7167601 0.5312499 0.8750011 c 0.2835773 0.161266 0.6407053 0.177327 0.9472661 0.0078 l 3.220702 -1.7832035 l 0.002 -0.0000004 c 0.20214 -0.0722278 0.380979 -0.2134641 0.499954 -0.4140502 c 0.271942 -0.4584824 0.122657 -1.0491979 -0.333985 -1.3242187 l -3.1640624 -1.9062503 c -0.1712409 -0.1031329 -0.3605857 -0.1465725 -0.5449219 -0.1367187 z" sodipodi:nodetypes="scccccccsccscc"/>
</svg>
