<?xml version="1.0" encoding="UTF-8"?>
<svg height="16px" viewBox="0 0 16 16" width="16px" xmlns="http://www.w3.org/2000/svg">
    <path d="m 4.796875 5.859375 c 0 0.550781 -0.449219 1 -1 1 c -0.554687 0 -1 -0.449219 -1 -1 s 0.445313 -1 1 -1 c 0.550781 0 1 0.449219 1 1 z m 0 0"/>
    <path d="m 4.796875 8.441406 c 0 0.550782 -0.449219 1 -1 1 c -0.554687 0 -1 -0.449218 -1 -1 c 0 -0.554687 0.445313 -1 1 -1 c 0.550781 0 1 0.445313 1 1 z m 0 0"/>
    <path d="m 4.796875 11.003906 c 0 0.554688 -0.449219 1 -1 1 c -0.554687 0 -1 -0.445312 -1 -1 c 0 -0.550781 0.445313 -1 1 -1 c 0.550781 0 1 0.449219 1 1 z m 0 0"/>
    <path d="m 1.441406 0.625 c -0.542968 0 -0.980468 0.601562 -0.980468 1.34375 v 12.3125 c 0 0.082031 0.007812 0.160156 0.015624 0.238281 c -0.027343 0.15625 -0.019531 0.3125 0.035157 0.460938 c 0.085937 0.238281 0.269531 0.410156 0.507812 0.515625 c 0.128907 0.082031 0.273438 0.128906 0.421875 0.128906 c 0.0625 0 0.121094 -0.007812 0.175782 -0.019531 c 0.195312 -0.007813 0.398437 -0.042969 0.601562 -0.121094 l 12.242188 -4.675781 c 0.628906 -0.242188 1.03125 -0.769532 1.007812 -1.265625 c 0.195312 -0.539063 -0.136719 -1.234375 -0.800781 -1.625 l -11.953125 -7.023438 c -0.375 -0.222656 -0.777344 -0.300781 -1.121094 -0.25 c -0.050781 -0.011719 -0.097656 -0.015625 -0.152344 -0.015625 z m 0.984375 2.734375 l 10.039063 5.898437 l -10.039063 3.835938 z m 0 0"/>
</svg>
